<svg xmlns="http://www.w3.org/2000/svg" xmlns:xlink="http://www.w3.org/1999/xlink" width="200" height="199.99999237060547" viewBox="0 0 200 199.99999237060547" fill="none">
<g  clip-path="url(#clip-path-3_2)">
<path     fill="#964CF6" fill-opacity="0" d="M0 200L200 200L200 0L0 0L0 200Z">
</path>
<g >
<path     fill="url(#linear_fill_10_2_0)" fill-opacity="0.8" d="M126.834 95.1423L121.7 86.7103L123.548 29.5295L128.979 28.7662L126.834 95.1423ZM137.107 111.852L131.978 103.265L134.41 28.0029L139.841 27.2396L137.107 111.852ZM147.372 128.793L142.245 120.129L145.272 26.4763L150.703 25.7131L147.372 128.793ZM70.8685 98.2387L76.0023 106.671L74.1543 163.852L68.7233 164.615L70.8685 98.2387ZM60.5958 81.5292L65.7246 90.1158L63.2923 165.378L57.8613 166.141L60.5958 81.5292ZM50.3307 64.5879L55.457 73.2517L52.4303 166.905L46.9993 167.668L50.3307 64.5879ZM53.0206 39.4415L59.3567 38.551L132.01 155.721L125.673 156.611L53.0206 39.4415ZM65.8438 37.6393L72.2554 36.7382L144.833 153.918L138.346 154.83L65.8438 37.6393ZM78.5915 35.8477L84.9277 34.9572L152.291 143.871L156.134 24.9498L161.565 24.1865L157.43 152.148Q157.43 152.148 151.018 153.049L78.5915 35.8477ZM45.4116 49.5105L41.5682 168.431L36.1372 169.195L40.2728 41.2331Q40.2728 41.2331 46.7598 40.3214L119.186 157.523L112.926 158.403L45.4116 49.5105Z">
</path>
<path fill-rule="evenodd"  fill="rgba(255, 255, 255, 1)"  d="M46.3486,51.0217l66.5774,107.3813l6.26,-0.88l-0.574,-0.929l-71.8522,-116.2726l-6.487,0.9117l-4.1356,127.9619l5.431,-0.764l3.8434,-118.9205zM42.5257,169.307l-7.4115,1.041l4.2011,-129.9902l8.0318,-1.1288l73.5749,119.06l-8.583,1.206l-66.0531,-106.5361zM133.748,156.486l-8.661,1.217l-73.8048,-119.027l8.661,-1.2173zM146.57,154.684l-8.811,1.238l-73.6518,-119.0485l8.7349,-1.2276zM151.417,140.416l3.76,-116.3415l7.411,-1.0416l-4.201,129.9901l-7.956,1.118l-73.5751,-119.0592l8.6589,-1.2169zM152.354,141.93l-0.063,1.941l-0.937,-1.515l-66.4263,-107.3988l-6.3362,0.8905l0.5742,0.9291l71.8523,116.2722l6.412,-0.901l4.135,-127.9615l-5.431,0.7633zM122.591,28.6542l7.411,-1.0416l-2.295,71.0269l-1.737,-2.8529l-5.269,-8.6541zM133.453,27.1276l7.411,-1.0416l-2.886,89.315l-1.739,-2.911l-5.26,-8.807zM144.315,25.6011l7.411,-1.0416l-3.484,107.8095l-1.74,-2.94l-5.256,-8.883zM53.5965,40.3703l72.0765,116.2407l6.337,-0.89l-0.576,-0.929l-72.0773,-116.241l-6.3361,0.8905zM66.4185,38.5683l71.9275,116.2617l6.487,-0.912l-0.576,-0.929l-72.0016,-116.2508l-6.4116,0.9011zM126.897,93.1827l2.082,-64.4165l-5.431,0.7633l-1.848,57.1808l4.198,6.8946l0.936,1.5374zM137.171,109.868l2.67,-82.6284l-5.431,0.7633l-2.432,75.2621l4.193,7.021l0.936,1.566zM147.436,126.797l3.267,-101.0839l-5.431,0.7632l-3.027,93.6527l4.192,7.084l0.935,1.58zM53.3877,167.78l-7.4115,1.042l3.4843,-107.8098l6.9957,11.8233zM50.2662,66.5838l-3.2669,101.0842l5.431,-0.763l3.0267,-93.6533l-4.1916,-7.0841l-0.9347,-1.5797zM64.2497,166.253l-7.4115,1.042l2.8866,-89.3152l6.9991,11.7178zM60.5317,83.513l-2.6704,82.628l5.431,-0.763l2.4323,-75.2622l-4.1936,-7.0209l-0.9352,-1.5657zM75.1117,164.727l-7.4115,1.041l2.2955,-71.0264l1.737,2.8529l5.269,8.6545zM68.7233,164.615l5.431,-0.763l1.848,-57.181l-4.1978,-6.8948l-0.936,-1.5375l-0.0634,1.9593z">
</path>
</g>
</g>
<defs>
<clipPath id="clip-path-3_2">
<path d="M0 200L200 200L200 0L0 0L0 200Z" fill="white"/>
</clipPath>
<linearGradient id="linear_fill_10_2_0" x1="95.08596801757812" y1="224.30414581298828" x2="103.05281066894531" y2="-22.20363140106201" gradientUnits="userSpaceOnUse">
<stop offset="0" stop-color="#B875FA"  />
<stop offset="1" stop-color="#60A5FA"  />
</linearGradient>
</defs>
</svg>
